<?xml version="1.0" encoding="UTF-8"?>
<svg id="Layer_1" xmlns="http://www.w3.org/2000/svg" version="1.1" viewBox="0 0 100 100">
  <!-- Generator: Adobe Illustrator 29.7.1, SVG Export Plug-In . SVG Version: 2.1.1 Build 8)  -->
  <defs>
    <style>
      .st0 {
        fill: #fcdee6;
      }

      .st1 {
        fill: #bf6dbc;
      }
    </style>
  </defs>
  <g id="_3pBnTb">
    <g>
      <path class="st0" d="M14.74,75.04c-.93.94.05,2.37,1.45,1.96,1.72-.51.07-3.49-1.45-1.96ZM85.12,74.89c-1.15-.97-2.9.6-1.8,1.8,1.17,1.27,3.03-.77,1.8-1.8ZM63.09,41.88c-8.32-10.28-24.64-7.23-29.19,5.08-4.89,13.25,4.28,28.34,19.11,25.95,13.83-2.23,18.4-20.75,10.08-31.03ZM38.48,53.58c0-.62.18-1.36.24-1.97.58-6.55,4.17-15.75,12.72-14.32,7.37,1.23,9.74,10,9.83,16.43-.46.23-.67-.09-1.07-.14-1.71-.21-3.53-.37-5.25-.44-5.39-.21-10.99,0-16.31.73-.16-.1-.16-.12-.16-.3h0ZM54.69,70.35c-2.17,1.35-5.5,1.45-7.96.93-.18-.04-2.06-1.28-2.32-1.48-4.51-3.43-5.44-9.46-5.84-14.77,7.49,1.11,15.19.88,22.71.15-.24,5.46-1.63,12.09-6.59,15.17ZM92.45,45.14c-.14-.15-.43.06-.56.24-.76,1-2.1,5.03-2.48,6.4-1.62,5.66-2.89,11.73-6.68,16.48-.14.17-.16.39-.47.33,1.97-4.28,3.56-8.86,3.93-13.62.88-11.36-5.64-25.42-15.68-31.21-.3-.17-1.82-1.1-1.94-.53-.05.23,2.22,2.1,2.57,2.45,10.99,11.29,12.44,29.73,2.73,42.31-7.61,9.84-19.04,12.42-23.47,25.61l-.47,1.64c-.31-1.51-.91-2.94-1.56-4.33-5.39-11.56-16.96-14.56-23.54-24.66-8.4-12.88-6.49-29.65,4-40.67.53-.55,1.49-1.19,1.97-1.74.1-.12.37-.48.35-.6-.12-.12-.15-.21-.34-.2-.9.08-4.34,2.79-5.14,3.53-5.69,5.23-9.83,11.88-11.37,19.57-1.62,8.12-.02,15.94,3.74,23.18l-.94-1.03c-4.13-5.71-4.97-11.7-7.07-18.12-.21-.62-1.8-4.84-2.06-4.99-.08-.04-.37-.06-.41-.02-.2.12.39,3.87.44,4.44.85,10.39-.38,15.71,9.05,22.26,1.53,1.06,3.26,1.87,4.81,2.91,2.85,1.92,5.43,4.27,8.43,5.99-.18.14-.58.09-.8.07-2.24-.16-4.81-.68-6.69-.72-.05,0-.41-.23-.81-.36-.9-.3-3.4-1.63-4-1.68-.12,0-.25,0-.36,0,1.97,3.03,6.01,5.51,9.46,6.48,5.55,1.55,10.87-.41,16.14,2.94,2.14,1.36,5.12,5.22,5.75,7.66.31,1.21.15,3.24.54,4.4.29.86.87.41.94-.13.54-4.31.75-6.42,3.85-9.76,6.18-6.65,12.84-2.8,20.17-5.6,2.43-.93,6.1-3.26,7.63-5.36.2-.27.48-.49.08-.76-1.64.71-3.24,1.56-4.99,2-1.96.49-3.95.46-5.92.78-.39.07-1.24.78-1.39-.15,3.08-1.46,5.58-4.09,8.4-5.95,2.94-1.94,5.66-3.03,8.3-5.61,5.77-5.67,4.6-11.43,5.3-18.66.07-.69.76-4.98.58-5.17v-.02ZM18.99,72.07c-3.68-2.6-7.61-5.47-8.89-10.04-.61-2.19-.97-5.49-1.09-7.79-.07-1.28.07-2.58,0-3.86l.66,1.74c1.52,6.64,4.05,14.64,9.09,19.45.16.15.42.2.44.21.08.09.03.39-.21.29h0ZM29.36,84.12c-2.89-.43-5.85-1.81-8.12-3.6,1.31.15,2.57.52,3.88.71,4.14.59,8.2.62,12.1,2.4.05.02.07.2.15.24.49.24,1.21.37,1.5.88-3.1-.62-6.37-.16-9.5-.62ZM39.74,83.94c-2.8-1.46-6.04-2.42-8.63-3.9-8.47-4.84-13.44-10.55-15.71-20.24-2.4-10.24.77-21.99,8.03-29.59.13-.13.87-.95,1.02-.8l-2.31,4.17c-5.74,11.31-4.33,25.42,3.41,35.42,5,6.46,12.81,9.83,17.97,16.11.57.69,1.41,1.69,1.6,2.54-1.56-1.55-3.44-2.71-5.38-3.72h0ZM78.62,80.53c.08.37-.1.25-.27.38-1.89,1.33-4.47,2.52-6.74,3.02-3.49.76-7.08.34-10.6.83-.26-.25.81-.71.92-.76,1.18-.54,3.03-1.21,4.29-1.53,4.05-1.04,8.37-.83,12.41-1.93h0ZM75.92,75.13c-4.77,4.07-8.35,5.33-13.86,7.84-2.94,1.34-4.51,2.61-7.03,4.47-.2.15-.3.27-.59.21,1.99-3.07,4.68-5.58,7.5-7.86,2.55-2.06,5.37-3.82,7.84-6,12.56-11.07,14.74-27.44,7.01-42.06-.44-.82-1.08-1.64-1.46-2.47-.14-.29-.07-.63.14-.07,5.11,5.12,8.95,12.35,9.7,19.65.91,8.96-2.25,20.31-9.25,26.28ZM90.22,60.46c-.62,3.37-2.15,5.71-4.56,8.03-1.46,1.41-3.16,2.68-5.01,3.51,5.37-5.21,8.04-12.73,9.65-19.91l.68-1.86c-.24,3.4-.15,6.85-.76,10.23h0ZM64.93,24.76c-.05-.06-1.21-.24-1.49-.34-4.53-1.59-6.79-6-12.29-6.5-7.22-.63-8.68,4.25-14.25,6.39-.52.2-1.38.28-1.73.44-.15.07-.13.26-.09.36.09.21,3.67,1.28,4.33,1.64,1.23.68,2.54,2.08,3.78,2.91,5.07,3.36,9.85,2.76,14.65-.72.81-.59,1.66-1.58,2.48-2.05.74-.43,4.41-1.51,4.55-1.71.07-.1.11-.39.07-.44v.02ZM61.69,25.23c-.65.51-1.7.9-2.43,1.36-2.5,1.57-4.63,3.6-7.7,4.1-4.97.82-7.34-1.92-11.12-4.24-.4-.25-2.42-1.19-2.47-1.32-.08-.27.14-.21.29-.29.72-.32,1.5-.4,2.29-.78,4.18-2.02,5.17-5.39,11-4.5,3.76.58,4.88,2.74,7.73,4.36.46.26,2.48.9,2.57.99.21.22-.08.25-.18.33h0ZM54.53,24.88c-.65-.27-1.12-.12-1.62-.2-.41-.07-.85-.38-1.38-.22l.72-1.6c-.14-.14-1.23.76-1.6.58l-.58-3.06c-.22-.27-.25.04-.29.22-.08.48-.48,2.72-.73,2.92l-1.32-.52.58,1.46c-.5.14-2.83.2-3.06.44-.24.25.04.25.21.29.94.21,1.91.35,2.84.58l-.87,1.74c.16.16,1.34-1.16,1.74-1.02.16.77.5,1.52.44,2.33.94.15.62-1.95,1.16-2.27.31-.19,1.02.67,1.17.52.15-.43-.69-1.11-.29-1.38.44-.3,2.92-.41,3.06-.51.28-.21-.07-.25-.21-.3h.02ZM41.89,18.02c-1.38-1.63-2.64-3.5-4.12-5.06-.39-.42-.95-1.15-1.53-1.16-.12.12,1.49,2.48,1.69,2.75.45.64.97,1.21,1.46,1.82.36.45,1.6,2.23,2.02,2.28.44.05.58-.24.48-.62h0ZM62.74,12.15c-1.38,1.43-3.45,3.9-4.49,5.56-.26.42-.56.94.18.92.53-.02.83-.73,1.16-1.11,1.5-1.68,2.63-3.61,3.95-5.44.03-.85-.51-.24-.81.07h0ZM44.84,12.59c-.23-.67-1.95-5.43-2.2-5.58-.55-.35-.45.49-.39.9.2,1.13,1.35,4.13,1.79,5.34.13.35.98,2.67,1.11,2.75s.39,0,.56.02c.24-.22-.71-2.95-.87-3.43h0ZM57.65,6.55c-.09-.09-.37.02-.51.15-.25.23-1.46,3.54-1.68,4.14-.44,1.24-1.28,3.32-1.42,4.56-.07.54.26.9.6.44.26-.36.51-1.18.68-1.64.73-1.95,1.62-4.46,2.14-6.45.06-.22.3-1.08.19-1.19h0ZM50.37,3.71l-.3-3.71c-.73.03-.33.76-.35,1.12-.06,1.34-.21,2.72-.25,4.05-.03,1.16-.2,9.22.16,9.55.35.34.69-.48.73-.8.35-3.17-.28-6.96,0-10.2Z"/>
      <path class="st1" d="M92.45,45.14c-.14-.15-.43.06-.56.24-.76,1-2.1,5.03-2.48,6.4-1.62,5.66-2.89,11.73-6.68,16.48-.14.17-.16.39-.47.33,1.97-4.28,3.56-8.86,3.93-13.62.88-11.36-5.64-25.42-15.68-31.21-.3-.17-1.82-1.1-1.94-.53-.05.23,2.22,2.1,2.57,2.45,10.99,11.29,12.44,29.73,2.73,42.31-7.61,9.84-19.04,12.42-23.47,25.61l-.47,1.64c-.31-1.51-.91-2.94-1.56-4.33-5.39-11.56-16.96-14.56-23.54-24.66-8.4-12.88-6.49-29.65,4-40.67.53-.55,1.49-1.19,1.97-1.74.1-.12.37-.48.35-.6-.12-.12-.15-.21-.34-.2-.9.08-4.34,2.79-5.14,3.53-5.69,5.23-9.83,11.88-11.37,19.57-1.62,8.12-.02,15.94,3.74,23.18l-.94-1.03c-4.13-5.71-4.97-11.7-7.07-18.12-.21-.62-1.8-4.84-2.06-4.99-.08-.04-.37-.06-.41-.02-.2.12.39,3.87.44,4.44.85,10.39-.38,15.71,9.05,22.26,1.53,1.06,3.26,1.87,4.81,2.91,2.85,1.92,5.43,4.27,8.43,5.99-.18.14-.58.09-.8.07-2.24-.16-4.81-.68-6.69-.72-.05,0-.41-.23-.81-.36-.9-.3-3.4-1.63-4-1.68-.12,0-.25,0-.36,0,1.97,3.03,6.01,5.51,9.46,6.48,5.55,1.55,10.87-.41,16.14,2.94,2.14,1.36,5.12,5.22,5.75,7.66.31,1.21.15,3.24.54,4.4.29.86.87.41.94-.13.54-4.31.75-6.42,3.85-9.76,6.18-6.65,12.84-2.8,20.17-5.6,2.43-.93,6.1-3.26,7.63-5.36.2-.27.48-.49.08-.76-1.64.71-3.24,1.56-4.99,2-1.96.49-3.95.46-5.92.78-.39.07-1.24.78-1.39-.15,3.08-1.46,5.58-4.09,8.4-5.95,2.94-1.94,5.66-3.03,8.3-5.61,5.77-5.67,4.6-11.43,5.3-18.66.07-.69.76-4.98.58-5.17v-.02ZM24.52,29.13c.1.05.1.1,0,.15v-.15ZM18.99,72.07c-3.68-2.6-7.61-5.47-8.89-10.04-.61-2.19-.97-5.49-1.09-7.79-.07-1.28.07-2.58,0-3.86l.66,1.74c1.52,6.64,4.05,14.64,9.09,19.45.16.15.42.2.44.21.08.09.03.39-.21.29h0ZM29.36,84.12c-2.89-.43-5.85-1.81-8.12-3.6,1.31.15,2.57.52,3.88.71,4.14.59,8.2.62,12.1,2.4.05.02.07.2.15.24.49.24,1.21.37,1.5.88-3.1-.62-6.37-.16-9.5-.62ZM39.74,83.94c-2.8-1.46-6.04-2.42-8.63-3.9-8.47-4.84-13.44-10.55-15.71-20.24-2.4-10.24.77-21.99,8.03-29.59.13-.13.87-.95,1.02-.8l-2.31,4.17c-5.74,11.31-4.33,25.42,3.41,35.42,5,6.46,12.81,9.83,17.97,16.11.57.69,1.41,1.69,1.6,2.54-1.56-1.55-3.44-2.71-5.38-3.72h0ZM81.82,69.16s.21-.66.44-.44c.14.14-.25.58-.44.44ZM75.11,28.98c-.05.1-.25-.08-.14-.29.05-.1.25.08.14.29ZM78.98,80.23c.15.13-.22.37-.21.21l.21-.21ZM78.62,80.53c.08.37-.1.25-.27.38-1.89,1.33-4.47,2.52-6.74,3.02-3.49.76-7.08.34-10.6.83-.26-.25.81-.71.92-.76,1.18-.54,3.03-1.21,4.29-1.53,4.05-1.04,8.37-.83,12.41-1.93h0ZM75.92,75.13c-4.77,4.07-8.35,5.33-13.86,7.84-2.94,1.34-4.51,2.61-7.03,4.47-.2.15-.3.27-.59.21,1.99-3.07,4.68-5.58,7.5-7.86,2.55-2.06,5.37-3.82,7.84-6,12.56-11.07,14.74-27.44,7.01-42.06-.44-.82-1.08-1.64-1.46-2.47-.14-.29-.07-.63.14-.07,5.11,5.12,8.95,12.35,9.7,19.65.91,8.96-2.25,20.31-9.25,26.28ZM90.22,60.46c-.62,3.37-2.15,5.71-4.56,8.03-1.46,1.41-3.16,2.68-5.01,3.51,5.37-5.21,8.04-12.73,9.65-19.91l.68-1.86c-.24,3.4-.15,6.85-.76,10.23h0Z"/>
      <path class="st1" d="M63.09,41.88c-8.32-10.28-24.64-7.23-29.19,5.08-4.89,13.25,4.28,28.34,19.11,25.95,13.83-2.23,18.4-20.75,10.08-31.03ZM38.48,53.58c0-.62.18-1.36.24-1.97.58-6.55,4.17-15.75,12.72-14.32,7.37,1.23,9.74,10,9.83,16.43-.46.23-.67-.09-1.07-.14-1.71-.21-3.53-.37-5.25-.44-5.39-.21-10.99,0-16.31.73-.16-.1-.16-.12-.16-.3h0ZM54.69,70.35c-2.17,1.35-5.5,1.45-7.96.93-.18-.04-2.06-1.28-2.32-1.48-4.51-3.43-5.44-9.46-5.84-14.77,7.49,1.11,15.19.88,22.71.15-.24,5.46-1.63,12.09-6.59,15.17Z"/>
      <path class="st1" d="M64.93,24.76c-.05-.06-1.21-.24-1.49-.34-4.53-1.59-6.79-6-12.29-6.5-7.22-.63-8.68,4.25-14.25,6.39-.52.2-1.38.28-1.73.44-.15.07-.13.26-.09.36.09.21,3.67,1.28,4.33,1.64,1.23.68,2.54,2.08,3.78,2.91,5.07,3.36,9.85,2.76,14.65-.72.81-.59,1.66-1.58,2.48-2.05.74-.43,4.41-1.51,4.55-1.71.07-.1.11-.39.07-.44v.02ZM61.69,25.23c-.65.51-1.7.9-2.43,1.36-2.5,1.57-4.63,3.6-7.7,4.1-4.97.82-7.34-1.92-11.12-4.24-.4-.25-2.42-1.19-2.47-1.32-.08-.27.14-.21.29-.29.72-.32,1.5-.4,2.29-.78,4.18-2.02,5.17-5.39,11-4.5,3.76.58,4.88,2.74,7.73,4.36.46.26,2.48.9,2.57.99.21.22-.08.25-.18.33h0Z"/>
      <path class="st1" d="M50.08,0l.3,3.71c-.28,3.23.35,7.04,0,10.2-.03.32-.38,1.13-.73.8s-.18-8.39-.16-9.55c.03-1.32.19-2.71.25-4.05.02-.36-.39-1.09.35-1.12Z"/>
      <path class="st1" d="M57.65,6.55c.12.12-.13.98-.19,1.19-.52,2-1.41,4.5-2.14,6.45-.17.46-.42,1.28-.68,1.64-.34.47-.66.1-.6-.44.14-1.24.98-3.32,1.42-4.56.22-.61,1.43-3.91,1.68-4.14.14-.13.41-.24.51-.15h0Z"/>
      <path class="st1" d="M42.63,7.01c.25.16,1.97,4.91,2.2,5.58.16.48,1.1,3.2.87,3.43-.17-.02-.44.06-.56-.02s-.98-2.4-1.11-2.75c-.44-1.22-1.6-4.21-1.79-5.34-.07-.4-.16-1.24.39-.9h0Z"/>
      <path class="st1" d="M59.6,17.53c-.34.37-.62,1.09-1.16,1.11-.74.02-.44-.49-.18-.92,1.04-1.66,3.11-4.13,4.48-5.56.3-.3.84-.91.81-.07-1.32,1.83-2.44,3.76-3.95,5.44h0Z"/>
      <path class="st1" d="M39.39,16.36c-.49-.61-1-1.18-1.46-1.82-.2-.28-1.81-2.64-1.69-2.75.58,0,1.13.75,1.53,1.16,1.49,1.55,2.75,3.43,4.13,5.06.11.39-.05.67-.48.62s-1.66-1.83-2.03-2.28h0Z"/>
      <path class="st1" d="M85.12,74.89c1.23,1.03-.63,3.08-1.8,1.8-1.1-1.21.66-2.77,1.8-1.8Z"/>
      <path class="st1" d="M14.74,75.04c1.53-1.53,3.17,1.45,1.45,1.96-1.4.41-2.38-1.02-1.45-1.96Z"/>
      <path class="st0" d="M82.25,68.73c.14.14-.25.58-.44.44-.03-.02.21-.66.44-.44Z"/>
      <path class="st0" d="M75.11,28.98c-.05.1-.25-.08-.14-.29.05-.1.25.08.14.29Z"/>
      <path class="st0" d="M78.98,80.23c.15.13-.22.37-.21.21l.21-.21Z"/>
      <path class="st0" d="M24.52,29.13c.09.05.09.1,0,.15v-.15Z"/>
      <path class="st1" d="M54.73,25.19c-.13.1-2.62.21-3.06.51-.4.27.44.95.29,1.38-.15.16-.86-.71-1.17-.52-.54.32-.22,2.41-1.16,2.27.06-.81-.29-1.55-.44-2.33-.4-.14-1.59,1.18-1.74,1.02l.87-1.74c-.94-.24-1.9-.37-2.84-.58-.17-.04-.45-.04-.21-.29.23-.24,2.56-.3,3.06-.44l-.58-1.46,1.32.52c.25-.2.64-2.44.73-2.92.03-.18.07-.49.29-.22l.58,3.06c.37.18,1.46-.72,1.6-.58l-.72,1.6c.53-.16.97.16,1.38.22.5.07.97-.07,1.62.2.13.06.49.1.21.3h-.02Z"/>
    </g>
  </g>
</svg>