<?xml version="1.0" encoding="UTF-8"?>
<svg id="Layer_1" data-name="Layer 1" xmlns="http://www.w3.org/2000/svg" viewBox="0 0 134.34 150">
  <defs>
    <style>
      .cls-1 {
        fill: #fcdee6;
      }

      .cls-2 {
        fill: #bf6dbc;
      }
    </style>
  </defs>
  <g id="_3pBnTb" data-name="3pBnTb">
    <g>
      <path class="cls-1" d="M114.7,130.55c-2.19.5-.57,3.98,1.24,2.03.9-.98.27-2.38-1.24-2.03ZM83.89,130.54c-1.15.35-1.21,2.66.3,2.61,1.95-.06,1.98-3.3-.3-2.61ZM59.24,140.42c-.56-.79-1.98,1.65-2.39,2.04-.88.84-3.86,2.69-5.01,2.03-.24-.14-.18-.4-.3-.58-.08-.12-.29-.13-.31-.16-.07-.15.06-2.08.16-2.24,1.75-.33,3.45-.76,4.73-2.09,3.2-3.3-.38-5.41-3.61-2.9-2.53,1.97-2.43,4.69-4.72,6.79-.6.56-2.18,1.99-2.28.36-.06-.97.57-3.09.8-4.15.11-.49-.18-.23.18-.78.56-.87,1.18-1.33,1.75-2.07,1.94-2.54,5.97-8.62,5.96-11.76-.01-2.5-2.34-2.37-3.8-.95-2.72,2.65-4.02,8.27-5.08,11.83-2.68-.67-5.2,1.12-6.44,3.39-1.09,1.99-1.16,2.92-3.11,4.51-.43.35-1.31,1.08-1.57.13-.16-.58.89-3.19,1.18-3.89.27-.63,1.63-2.94,1.62-3.34-.01-.69-.97-.74-1.47-.45-.46.28-2.6,4.6-3.23,5.49-.85,1.19-4.59,5.19-3.71,1.25.48-2.16,2.22-4.69,2.56-6.65.25-1.45-.74-1.37-1.59-.53-.79.78-2.57,5.6-2.88,6.86-.32,1.31-.58,2.92,1.22,3.13,2.01.24,3.48-1.49,4.67-2.82-.59,2.7,1.29,3.31,3.36,1.85.72-.51,1.06-1.35,1.78-1.85.09,1.62.24,2.88,2.2,2.64,1.8-.22,2.78-2.02,3.77-3.3.59-.76.24.11.23.39-.2,5.29,3.55,2.68,5.41.27.51,4.5,4.84,2.74,7.25.88.55-.42,3.13-2.7,2.67-3.36ZM54.01,136.97c1.25-.99,2.65-.87,1.86.98-.56,1.32-2.57,2.46-3.98,2.48-.39-.4,1.61-3.05,2.12-3.46ZM47.28,135.69c.93-3.08,1.68-6.32,3.16-9.2.47-.91,1.44-2.4,2.51-2.46.97.49-.23,3.28-.55,4.06-1.21,2.93-3.23,6.04-5.29,8.44-.41-.82.1-.63.17-.84ZM40.12,144.49c-.97-.22.12-3.99.43-4.69.47-1.06,2.14-3.36,3.45-3.27.13,0,.93.33.96.37.69,1.1-3.61,7.87-4.84,7.59ZM81.17,121.88c-1.01-.07-.29.69-.14,1.36,1.3,5.97-4.92,17.22-9.48,20.99-1.26,1.04-3.06,2.14-2.62-.49.42-2.48,2-5.55,2.7-8.1.85-3.11,2.13-8.78-1.76-10.28-6.66-2.57-12.02,7.48-7.44,10.98.56.43.92.66,1.68.53.01-.95-1.17-1.19-1.67-1.95-1.75-2.69,1.12-8.33,4.32-8.94,5.34-1.03,3.68,5.38,2.97,8.46-.6,2.59-2.96,8.87-2.38,11.16.56,2.23,2.93,1.06,4.14.07,3.89-3.18,11.04-14.52,11.4-19.5.09-1.23-.06-4.17-1.72-4.29ZM25.08,132.75c1.04-3.33,2.18-6.39,3.63-9.57.17-.38,1.27-1.68.26-1.7-1.78-.03-5.29,3.19-6.47,4.52-2.42,2.71-4.32,5.91-6.05,9.09-1.17-.02-2.22-.58-3.45-.66-2.23-.15-6.17.79-7.69,2.54-1.01,1.18-1.68,4.46.36,4.87-1.22-5.45,6.12-7.63,10.09-5.75-2.39,4.49-6.99,12.43-13.18,10.7-.36-.1-.66-.23-.97-.44-.61-.42-.87-1.48-1.61-1.04-.09,1.9,1.52,2.95,3.27,3.09,5.23.42,9.4-4.83,11.96-8.77.56-.86,1.12-2.19,1.69-2.92.15-.19.21-.32.49-.32,1.08,0,2.79,1.13,4.02,1.03-.75,3.29-2.48,7.92-.74,11.1,1.06,1.95,2.58,1.57,4.46,1.11-.54-.58-1.36-.33-2.04-.88-1.23-.99-1.1-3.77-.97-5.23.06-.69,1.14-5.52,1.43-5.75,1.31-.02,2.74.21,3.94-.39.16-.08.87-.54.83-.77-1.47.21-2.93.35-4.43.26l.9-3.94c.04-.14.26-.15.27-.2ZM21.78,136.7l-4.06-1.06c-.04-.19.02-.36.08-.53.35-1.09,2.74-4.9,3.5-6.07,1.49-2.32,3.41-4.17,5.63-5.79l-5.14,13.45ZM25.39,91.26c-1.13,1.14.06,2.88,1.76,2.38,2.09-.62.09-4.24-1.76-2.38ZM110.98,91.07c-1.4-1.18-3.53.73-2.19,2.19,1.42,1.55,3.69-.94,2.19-2.19ZM84.19,50.93c-10.12-12.5-29.96-8.79-35.5,6.18-5.95,16.11,5.2,34.47,23.24,31.56,16.82-2.71,22.38-25.23,12.26-37.74ZM54.26,65.16c0-.75.22-1.66.29-2.39.7-7.97,5.07-19.15,15.47-17.41,8.96,1.49,11.84,12.16,11.95,19.98-.56.28-.82-.11-1.3-.17-2.08-.26-4.29-.45-6.38-.53-6.55-.25-13.36,0-19.83.89-.19-.12-.2-.15-.2-.36ZM73.97,85.56c-2.64,1.64-6.69,1.76-9.68,1.13-.22-.05-2.51-1.56-2.82-1.8-5.48-4.17-6.62-11.5-7.1-17.96,9.11,1.35,18.47,1.07,27.62.18-.29,6.64-1.98,14.7-8.02,18.45ZM119.89,54.9c-.17-.18-.52.07-.68.29-.93,1.22-2.55,6.12-3.02,7.78-1.97,6.88-3.52,14.26-8.12,20.04-.17.21-.2.48-.57.4,2.4-5.21,4.33-10.78,4.78-16.56,1.07-13.81-6.86-30.91-19.07-37.95-.36-.21-2.21-1.34-2.36-.65-.06.28,2.7,2.55,3.12,2.98,13.37,13.73,15.13,36.16,3.32,51.45-9.25,11.97-23.16,15.1-28.54,31.14l-.57,1.99c-.38-1.84-1.11-3.57-1.9-5.26-6.55-14.06-20.62-17.71-28.63-29.99-10.21-15.66-7.89-36.06,4.87-49.46.64-.67,1.81-1.45,2.4-2.12.12-.14.45-.58.42-.73-.14-.15-.18-.26-.41-.24-1.1.1-5.28,3.39-6.25,4.29-6.92,6.36-11.96,14.45-13.83,23.8-1.97,9.87-.02,19.38,4.55,28.19l-1.14-1.25c-5.02-6.94-6.05-14.23-8.6-22.04-.25-.76-2.19-5.89-2.51-6.07-.1-.05-.45-.07-.5-.03-.24.15.47,4.71.53,5.4,1.03,12.63-.46,19.11,11,27.07,1.86,1.29,3.97,2.27,5.85,3.54,3.46,2.33,6.6,5.19,10.25,7.28-.22.17-.7.11-.97.09-2.73-.2-5.85-.83-8.13-.88-.06,0-.5-.28-.99-.44-1.1-.37-4.14-1.98-4.87-2.04-.15-.01-.3,0-.44,0,2.4,3.69,7.31,6.7,11.51,7.88,6.75,1.88,13.22-.5,19.63,3.57,2.6,1.65,6.23,6.35,6.99,9.31.38,1.47.18,3.94.66,5.35.35,1.04,1.06.5,1.14-.16.66-5.24.91-7.81,4.68-11.87,7.51-8.09,15.62-3.4,24.53-6.81,2.95-1.13,7.42-3.96,9.28-6.52.24-.33.58-.59.1-.92-2,.86-3.94,1.9-6.07,2.43-2.38.59-4.8.56-7.2.95-.48.08-1.51.95-1.69-.18,3.75-1.78,6.79-4.97,10.22-7.23,3.58-2.36,6.88-3.69,10.09-6.82,7.02-6.89,5.6-13.9,6.44-22.69.08-.84.92-6.06.71-6.29ZM30.56,87.65c-4.48-3.16-9.26-6.65-10.81-12.21-.74-2.66-1.18-6.68-1.33-9.47-.08-1.56.08-3.14,0-4.7l.8,2.12c1.85,8.07,4.93,17.8,11.06,23.65.19.18.51.24.53.26.1.11.04.47-.26.35ZM43.17,102.3c-3.51-.52-7.11-2.2-9.88-4.38,1.59.18,3.13.63,4.72.86,5.03.72,9.97.75,14.71,2.92.06.03.09.24.18.29.6.29,1.47.45,1.82,1.07-3.77-.75-7.75-.19-11.55-.76ZM55.79,102.08c-3.4-1.78-7.35-2.94-10.5-4.74-10.3-5.89-16.34-12.83-19.11-24.62-2.92-12.45.94-26.74,9.76-35.98.16-.16,1.06-1.16,1.24-.97l-2.81,5.07c-6.98,13.76-5.26,30.91,4.15,43.08,6.08,7.86,15.58,11.96,21.85,19.59.69.84,1.71,2.05,1.95,3.09-1.9-1.89-4.18-3.29-6.54-4.52ZM103.07,97.93c.1.45-.12.31-.33.46-2.3,1.62-5.44,3.07-8.2,3.67-4.25.92-8.61.41-12.89,1.01-.32-.3.98-.86,1.12-.92,1.44-.66,3.69-1.47,5.22-1.86,4.92-1.26,10.18-1.01,15.09-2.35ZM99.79,91.37c-5.8,4.95-10.16,6.48-16.85,9.54-3.57,1.63-5.49,3.18-8.55,5.44-.24.18-.37.33-.72.25,2.42-3.73,5.69-6.78,9.12-9.56,3.1-2.51,6.53-4.65,9.53-7.3,15.27-13.46,17.92-33.37,8.53-51.15-.53-1-1.31-2-1.78-3-.17-.35-.08-.77.17-.08,6.21,6.23,10.89,15.02,11.8,23.9,1.11,10.9-2.74,24.7-11.25,31.96ZM117.18,73.53c-.75,4.1-2.61,6.94-5.54,9.77-1.77,1.71-3.84,3.26-6.09,4.27,6.53-6.34,9.78-15.48,11.74-24.21l.83-2.26c-.29,4.14-.18,8.33-.93,12.44ZM86.42,30.11c-.06-.07-1.47-.29-1.81-.41-5.51-1.93-8.26-7.3-14.95-7.9-8.78-.77-10.55,5.17-17.33,7.77-.63.24-1.68.34-2.1.53-.18.08-.16.32-.11.44.11.26,4.46,1.56,5.26,2,1.49.83,3.09,2.53,4.6,3.54,6.16,4.09,11.98,3.36,17.82-.88.99-.72,2.02-1.92,3.01-2.49.9-.52,5.36-1.84,5.53-2.08.09-.12.13-.47.08-.54ZM82.48,30.68c-.79.62-2.07,1.09-2.95,1.65-3.04,1.91-5.63,4.38-9.36,4.99-6.04,1-8.93-2.33-13.52-5.16-.49-.3-2.94-1.45-3-1.61-.1-.33.17-.26.35-.35.88-.39,1.83-.49,2.78-.95,5.08-2.46,6.29-6.56,13.38-5.47,4.57.7,5.93,3.33,9.4,5.3.56.32,3.02,1.09,3.13,1.21.26.27-.1.31-.22.4ZM73.78,30.26c-.79-.33-1.36-.15-1.97-.24-.5-.08-1.03-.46-1.68-.27l.88-1.95c-.17-.17-1.49.93-1.95.71l-.71-3.72c-.27-.33-.31.05-.35.27-.1.58-.58,3.31-.89,3.55l-1.6-.63.71,1.77c-.61.17-3.44.24-3.72.53-.29.3.05.3.26.35,1.14.26,2.32.42,3.45.71l-1.06,2.12c.19.2,1.63-1.41,2.12-1.24.19.94.61,1.85.53,2.83,1.14.18.75-2.37,1.41-2.76.38-.23,1.24.82,1.42.63.18-.52-.84-1.35-.35-1.68.53-.36,3.55-.5,3.72-.62.34-.25-.09-.31-.25-.37ZM58.41,21.91c-1.68-1.98-3.21-4.26-5.01-6.15-.48-.51-1.15-1.4-1.86-1.41-.15.14,1.81,3.01,2.05,3.35.55.78,1.18,1.47,1.78,2.21.44.55,1.94,2.71,2.46,2.77.53.06.71-.29.58-.76ZM83.76,14.78c-1.68,1.74-4.19,4.74-5.46,6.76-.32.51-.68,1.14.22,1.12.65-.02,1.01-.89,1.41-1.35,1.83-2.04,3.2-4.39,4.8-6.62.04-1.03-.62-.29-.98.08ZM61.99,15.31c-.28-.82-2.37-6.6-2.68-6.79-.67-.42-.55.6-.47,1.09.24,1.38,1.64,5.02,2.18,6.5.16.43,1.19,3.25,1.35,3.35.16.1.48,0,.68.03.29-.27-.86-3.59-1.06-4.17ZM77.57,7.97c-.11-.11-.45.02-.62.18-.3.28-1.78,4.3-2.04,5.04-.54,1.51-1.56,4.04-1.73,5.54-.08.66.32,1.1.73.53.32-.44.62-1.44.83-2,.89-2.37,1.97-5.42,2.6-7.85.07-.27.36-1.31.23-1.45ZM68.72,4.51L68.36,0c-.89.04-.4.92-.42,1.36-.07,1.63-.26,3.31-.3,4.92-.04,1.41-.24,11.21.19,11.61.43.41.84-.58.89-.97.43-3.85-.34-8.47,0-12.41Z"/>
      <path class="cls-2" d="M119.89,54.9c-.17-.18-.52.07-.68.29-.93,1.22-2.55,6.12-3.02,7.78-1.97,6.88-3.52,14.26-8.12,20.04-.17.21-.2.48-.57.4,2.4-5.21,4.33-10.78,4.78-16.56,1.07-13.81-6.86-30.91-19.07-37.95-.36-.21-2.21-1.34-2.36-.65-.06.28,2.7,2.55,3.12,2.98,13.37,13.73,15.13,36.16,3.32,51.45-9.25,11.97-23.16,15.1-28.54,31.14l-.57,1.99c-.38-1.84-1.11-3.57-1.9-5.26-6.55-14.06-20.62-17.71-28.63-29.99-10.21-15.66-7.89-36.06,4.87-49.46.64-.67,1.81-1.45,2.4-2.12.12-.14.45-.58.42-.73-.14-.15-.18-.26-.41-.24-1.1.1-5.28,3.39-6.25,4.29-6.92,6.36-11.96,14.45-13.83,23.8-1.97,9.87-.02,19.38,4.55,28.19l-1.14-1.25c-5.02-6.94-6.05-14.23-8.6-22.04-.25-.76-2.19-5.89-2.51-6.07-.1-.05-.45-.07-.5-.03-.24.15.47,4.71.53,5.4,1.03,12.63-.46,19.11,11,27.07,1.86,1.29,3.97,2.27,5.85,3.54,3.46,2.33,6.6,5.19,10.25,7.28-.22.17-.7.11-.97.09-2.73-.2-5.85-.83-8.13-.88-.06,0-.5-.28-.99-.44-1.1-.37-4.14-1.98-4.87-2.04-.15-.01-.3,0-.44,0,2.4,3.69,7.31,6.7,11.51,7.88,6.75,1.88,13.22-.5,19.63,3.57,2.6,1.65,6.23,6.35,6.99,9.31.38,1.47.18,3.94.66,5.35.35,1.04,1.06.5,1.14-.16.66-5.24.91-7.81,4.68-11.87,7.51-8.09,15.62-3.4,24.53-6.81,2.95-1.13,7.42-3.96,9.28-6.52.24-.33.58-.59.1-.92-2,.86-3.94,1.9-6.07,2.43-2.38.59-4.8.56-7.2.95-.48.08-1.51.95-1.69-.18,3.75-1.78,6.79-4.97,10.22-7.23,3.58-2.36,6.88-3.69,10.09-6.82,7.02-6.89,5.6-13.9,6.44-22.69.08-.84.92-6.06.71-6.29ZM37.28,35.42c.12.06.12.12,0,.18v-.18ZM30.56,87.65c-4.48-3.16-9.26-6.65-10.81-12.21-.74-2.66-1.18-6.68-1.33-9.47-.08-1.56.08-3.14,0-4.7l.8,2.12c1.85,8.07,4.93,17.8,11.06,23.65.19.18.51.24.53.26.1.11.04.47-.26.35ZM43.17,102.3c-3.51-.52-7.11-2.2-9.88-4.38,1.59.18,3.13.63,4.72.86,5.03.72,9.97.75,14.71,2.92.06.03.09.24.18.29.6.29,1.47.45,1.82,1.07-3.77-.75-7.75-.19-11.55-.76ZM55.79,102.08c-3.4-1.78-7.35-2.94-10.5-4.74-10.3-5.89-16.34-12.83-19.11-24.62-2.92-12.45.94-26.74,9.76-35.98.16-.16,1.06-1.16,1.24-.97l-2.81,5.07c-6.98,13.76-5.26,30.91,4.15,43.08,6.08,7.86,15.58,11.96,21.85,19.59.69.84,1.71,2.05,1.95,3.09-1.9-1.89-4.18-3.29-6.54-4.52ZM106.96,84.11s.26-.8.53-.53c.17.17-.31.7-.53.53ZM98.81,35.24c-.06.12-.3-.1-.17-.35.06-.12.3.1.17.35ZM103.51,97.57c.18.16-.27.45-.26.26l.26-.26ZM103.07,97.93c.1.45-.12.31-.33.46-2.3,1.62-5.44,3.07-8.2,3.67-4.25.92-8.61.41-12.89,1.01-.32-.3.98-.86,1.12-.92,1.44-.66,3.69-1.47,5.22-1.86,4.92-1.26,10.18-1.01,15.09-2.35ZM99.79,91.37c-5.8,4.95-10.16,6.48-16.85,9.54-3.57,1.63-5.49,3.18-8.55,5.44-.24.18-.37.33-.72.25,2.42-3.73,5.69-6.78,9.12-9.56,3.1-2.51,6.53-4.65,9.53-7.3,15.27-13.46,17.92-33.37,8.53-51.15-.53-1-1.31-2-1.78-3-.17-.35-.08-.77.17-.08,6.21,6.23,10.89,15.02,11.8,23.9,1.11,10.9-2.74,24.7-11.25,31.96ZM117.18,73.53c-.75,4.1-2.61,6.94-5.54,9.77-1.77,1.71-3.84,3.26-6.09,4.27,6.53-6.34,9.78-15.48,11.74-24.21l.83-2.26c-.29,4.14-.18,8.33-.93,12.44Z"/>
      <path class="cls-2" d="M84.19,50.93c-10.12-12.5-29.96-8.79-35.5,6.18-5.95,16.11,5.2,34.47,23.24,31.56,16.82-2.71,22.38-25.23,12.26-37.74ZM54.26,65.16c0-.75.22-1.66.29-2.39.7-7.97,5.07-19.15,15.47-17.41,8.96,1.49,11.84,12.16,11.95,19.98-.56.28-.82-.11-1.3-.17-2.08-.26-4.29-.45-6.38-.53-6.55-.25-13.36,0-19.83.89-.19-.12-.2-.15-.2-.36ZM73.97,85.56c-2.64,1.64-6.69,1.76-9.68,1.13-.22-.05-2.51-1.56-2.82-1.8-5.48-4.17-6.62-11.5-7.1-17.96,9.11,1.35,18.47,1.07,27.62.18-.29,6.64-1.98,14.7-8.02,18.45Z"/>
      <path class="cls-2" d="M133.83,140.28c-.65.12-.67.75-1.01,1.11-1.94,2.07-7.87,6.08-6.71.11,1.79-.29,3.72-.8,5.03-2.14,2.03-2.09,1.16-4.62-1.91-4.04-1.31.25-3.11,2.31-3.82,3.44-.47.76-.71,1.7-1.12,2.42-.39.68-3.27,4.52-3.83,2.65-.41-1.38,1.9-4.43,1.75-5.81-.1-.93-1.62-1.55-1.88-2.37-.35-1.11.55-2.44-.25-3.29-.47-.5-1.59.39-1.7.79-.3,1.08.2,2.06.1,2.92-.15,1.34-4.81,7.49-6.13,8.06-.8.35-1.31-.14-1.14-.93.03-.13.36-.1.37-.22.14-1.72,1.28-3.55,1.81-5.42.18-.65.78-2.33-.3-2.26-1.26.08-1.66,2.51-2.1,3.41-.59,1.21-1.72,1.79-3.05,1.91.07-1.81,1.31-3.92-.91-4.94-2.5-1.16-4.57.83-5.81,2.83-1.04,1.68-1.52,3.1-3.02,4.59-2.48,2.46-2.97,1.64-2.16-1.46.78-3.01,2.2-6,3.16-8.97.39-.34,4.05,1.1,5.82-.29.43-.34,1.16-1.49.18-1.24-.64.16-1.12.7-2.03.81-1.14.13-2.36-.07-3.45-.36l2.46-5.08c-.64-1.2-1.61.28-2.07.95-.35.51-1.61,3.22-1.8,3.34-.32.2-2.75.07-3.72.36-.52.16-2.14,1.1-2.4,1.5-.86,1.3,2.15-.3,2.48-.35.83-.12,1.88.09,2.74,0,.03.24-.05.45-.12.67-.74,2.56-2.46,6.96-4.21,8.89-1.91,2.09-7.06,5.29-6.45-.07.19-1.66,1.6-4.06,3-4.97.83-.53,2.16-.84,1.95.53-.14.95-.9.58-1.05.82-.66,1.03,1.47,1.68,2.08.22,1.38-3.29-2.57-3.53-4.75-1.92-2.19,1.63-2.33,3.81-3.74,5.65-.38.49-2.34,2.49-2.91,2.4-.75-1.31.29-2.96.7-4.26.13-.4.21-1.06.38-1.56.2-.59,1.52-2.88.74-3.37-1.2-.76-2.42,2.72-2.72,3.52-.47,1.23-1.94,5.28-.99,6.28,1.58,1.64,4.2-1.17,5.32-2.22.19,2.76,3.03,3.13,5.26,2.33,1.66-.59,2.91-2.03,4.13-3.22-1.39,6,3.97,3.29,5.84.35-.09,5.27,4.29,3.27,6.55.61.28-.32.87-1.47,1.07-1.59.3-.18.98-.06,1.43-.17.5-.12,1.02-.45,1.41-.36-1.18,2-1.51,5.85,2.02,4.32,1.63-.71,3.97-3.91,5.03-5.41.69-.98,1.29-2.04,1.9-3.07.31-.05.76.28.87.54.92,2.2-2.95,5.46-1.5,7.52,1.54,2.19,4.42-.36,5.4-1.86.81,5.21,6.88,1.75,9.04-.52.3-.32,2.13-2.35.74-2.09ZM130.09,136.18c1.4-.12.71,1.58.16,2.3-.92,1.2-2.42,1.83-3.81,2.3.29-1.46,2.02-4.46,3.65-4.6ZM106.58,140.89c.16.78-3.1,4.17-4.17,3.66-1.17-.56-.34-3.68.06-4.64.59-1.42,2.47-4.42,4.3-3.54-.06.99-.8,1.39-.87,2.56-.08,1.32.58,1.48.68,1.97Z"/>
      <path class="cls-2" d="M59.24,140.42c-.56-.79-1.98,1.65-2.39,2.04-.88.84-3.86,2.69-5.01,2.03-.24-.14-.18-.4-.3-.58-.08-.12-.29-.13-.31-.16-.07-.15.06-2.08.16-2.24,1.75-.33,3.45-.76,4.73-2.09,3.2-3.3-.38-5.41-3.61-2.9-2.53,1.97-2.43,4.69-4.72,6.79-.6.56-2.18,1.99-2.28.36-.06-.97.57-3.09.8-4.15.11-.49-.18-.23.18-.78.56-.87,1.18-1.33,1.75-2.07,1.94-2.54,5.97-8.62,5.96-11.76-.01-2.5-2.34-2.37-3.8-.95-2.72,2.65-4.02,8.27-5.08,11.83-2.68-.67-5.2,1.12-6.44,3.39-1.09,1.99-1.16,2.92-3.11,4.51-.43.35-1.31,1.08-1.57.13-.16-.58.89-3.19,1.18-3.89.27-.63,1.63-2.94,1.62-3.34-.01-.69-.97-.74-1.47-.45-.46.28-2.6,4.6-3.23,5.49-.85,1.19-4.59,5.19-3.71,1.25.48-2.16,2.22-4.69,2.56-6.65.25-1.45-.74-1.37-1.59-.53-.79.78-2.57,5.6-2.88,6.86-.32,1.31-.58,2.92,1.22,3.13,2.01.24,3.48-1.49,4.67-2.82-.59,2.7,1.29,3.31,3.36,1.85.72-.51,1.06-1.35,1.78-1.85.09,1.62.24,2.88,2.2,2.64,1.8-.22,2.78-2.02,3.77-3.3.59-.76.24.11.23.39-.2,5.29,3.55,2.68,5.41.27.51,4.5,4.84,2.74,7.25.88.55-.42,3.13-2.7,2.67-3.36ZM54.01,136.97c1.25-.99,2.65-.87,1.86.98-.56,1.32-2.57,2.46-3.98,2.48-.39-.4,1.61-3.05,2.12-3.46ZM47.28,135.69c.93-3.08,1.68-6.32,3.16-9.2.47-.91,1.44-2.4,2.51-2.46.97.49-.23,3.28-.55,4.06-1.21,2.93-3.23,6.04-5.29,8.44-.41-.82.1-.63.17-.84ZM40.12,144.49c-.97-.22.12-3.99.43-4.69.47-1.06,2.14-3.36,3.45-3.27.13,0,.93.33.96.37.69,1.1-3.61,7.87-4.84,7.59Z"/>
      <path class="cls-2" d="M25.08,132.75c1.04-3.33,2.18-6.39,3.63-9.57.17-.38,1.27-1.68.26-1.7-1.78-.03-5.29,3.19-6.47,4.52-2.42,2.71-4.32,5.91-6.05,9.09-1.17-.02-2.22-.58-3.45-.66-2.23-.15-6.17.79-7.69,2.54-1.01,1.18-1.68,4.46.36,4.87-1.22-5.45,6.12-7.63,10.09-5.75-2.39,4.49-6.99,12.43-13.18,10.7-.36-.1-.66-.23-.97-.44-.61-.42-.87-1.48-1.61-1.04-.09,1.9,1.52,2.95,3.27,3.09,5.23.42,9.4-4.83,11.96-8.77.56-.86,1.12-2.19,1.69-2.92.15-.19.21-.32.49-.32,1.08,0,2.79,1.13,4.02,1.03-.75,3.29-2.48,7.92-.74,11.1,1.06,1.95,2.58,1.57,4.46,1.11-.54-.58-1.36-.33-2.04-.88-1.23-.99-1.1-3.77-.97-5.23.06-.69,1.14-5.52,1.43-5.75,1.31-.02,2.74.21,3.94-.39.16-.08.87-.54.83-.77-1.47.21-2.93.35-4.43.26l.9-3.94c.04-.14.26-.15.27-.2ZM21.78,136.7l-4.06-1.06c-.04-.19.02-.36.08-.53.35-1.09,2.74-4.9,3.5-6.07,1.49-2.32,3.41-4.17,5.63-5.79l-5.14,13.45Z"/>
      <path class="cls-2" d="M86.42,30.11c-.06-.07-1.47-.29-1.81-.41-5.51-1.93-8.26-7.3-14.95-7.9-8.78-.77-10.55,5.17-17.33,7.77-.63.24-1.68.34-2.1.53-.18.08-.16.32-.11.44.11.26,4.46,1.56,5.26,2,1.49.83,3.09,2.53,4.6,3.54,6.16,4.09,11.98,3.36,17.82-.88.99-.72,2.02-1.92,3.01-2.49.9-.52,5.36-1.84,5.53-2.08.09-.12.13-.47.08-.54ZM82.48,30.68c-.79.62-2.07,1.09-2.95,1.65-3.04,1.91-5.63,4.38-9.36,4.99-6.04,1-8.93-2.33-13.52-5.16-.49-.3-2.94-1.45-3-1.61-.1-.33.17-.26.35-.35.88-.39,1.83-.49,2.78-.95,5.08-2.46,6.29-6.56,13.38-5.47,4.57.7,5.93,3.33,9.4,5.3.56.32,3.02,1.09,3.13,1.21.26.27-.1.31-.22.4Z"/>
      <path class="cls-2" d="M71.48,145.67c-1.21.99-3.59,2.16-4.14-.07s1.78-8.57,2.38-11.16c.72-3.07,2.37-9.48-2.97-8.46-3.2.62-6.07,6.26-4.32,8.94.5.77,1.68,1,1.67,1.96-.76.12-1.12-.11-1.68-.54-4.58-3.5.78-13.55,7.44-10.98,3.89,1.5,2.62,7.17,1.76,10.28-.7,2.55-2.28,5.62-2.7,8.1-.45,2.63,1.36,1.54,2.62.49,4.55-3.77,10.78-15.02,9.48-20.99-.15-.67-.86-1.43.14-1.36,1.65.12,1.81,3.07,1.72,4.29-.37,4.98-7.51,16.32-11.4,19.5Z"/>
      <path class="cls-2" d="M68.36,0l.36,4.51c-.34,3.93.43,8.56,0,12.41-.04.39-.46,1.38-.89.97s-.22-10.2-.19-11.61c.04-1.61.23-3.29.3-4.92.02-.44-.48-1.32.42-1.36Z"/>
      <path class="cls-2" d="M77.57,7.97c.14.14-.16,1.19-.23,1.45-.63,2.43-1.71,5.47-2.6,7.85-.21.56-.51,1.56-.83,2-.41.57-.8.12-.73-.53.17-1.51,1.19-4.04,1.73-5.54.27-.74,1.74-4.76,2.04-5.04.17-.16.5-.29.62-.18Z"/>
      <path class="cls-2" d="M59.31,8.52c.31.2,2.4,5.97,2.68,6.79.2.58,1.34,3.89,1.06,4.17-.21-.03-.53.07-.68-.03s-1.19-2.92-1.35-3.35c-.54-1.48-1.94-5.12-2.18-6.5-.08-.49-.2-1.51.47-1.09Z"/>
      <path class="cls-2" d="M79.94,21.32c-.41.45-.76,1.33-1.41,1.35-.9.02-.54-.6-.22-1.12,1.27-2.02,3.78-5.02,5.45-6.76.36-.37,1.02-1.11.98-.08-1.6,2.23-2.97,4.57-4.8,6.62Z"/>
      <path class="cls-2" d="M55.36,19.9c-.59-.74-1.22-1.43-1.77-2.21-.24-.34-2.2-3.21-2.05-3.35.71.01,1.38.91,1.86,1.41,1.81,1.89,3.34,4.17,5.02,6.15.13.48-.06.82-.58.76s-2.02-2.22-2.47-2.77Z"/>
      <path class="cls-2" d="M110.98,91.07c1.49,1.25-.77,3.75-2.19,2.19-1.34-1.47.8-3.37,2.19-2.19Z"/>
      <path class="cls-2" d="M25.39,91.26c1.86-1.86,3.85,1.76,1.76,2.38-1.7.5-2.89-1.24-1.76-2.38Z"/>
      <path class="cls-2" d="M83.89,130.54c2.28-.69,2.25,2.55.3,2.61-1.51.05-1.45-2.26-.3-2.61Z"/>
      <path class="cls-2" d="M115.94,132.58c-1.81,1.95-3.43-1.53-1.24-2.03,1.5-.34,2.14,1.06,1.24,2.03Z"/>
      <path class="cls-1" d="M107.49,83.58c.17.17-.31.71-.53.53-.04-.03.26-.8.53-.53Z"/>
      <path class="cls-1" d="M98.81,35.24c-.06.12-.3-.1-.17-.35.06-.12.3.1.17.35Z"/>
      <path class="cls-1" d="M103.51,97.57c.18.16-.27.45-.26.26l.26-.26Z"/>
      <path class="cls-1" d="M37.28,35.42c.11.06.11.12,0,.18v-.18Z"/>
      <path class="cls-2" d="M74.02,30.63c-.16.12-3.19.26-3.72.62-.49.33.53,1.16.35,1.68-.18.19-1.04-.86-1.42-.63-.66.39-.27,2.93-1.41,2.76.07-.98-.35-1.89-.53-2.83-.49-.17-1.93,1.44-2.12,1.24l1.06-2.12c-1.14-.29-2.31-.45-3.45-.71-.21-.05-.55-.05-.26-.35.28-.29,3.11-.37,3.72-.53l-.71-1.77,1.6.63c.31-.24.78-2.97.89-3.55.04-.22.08-.59.35-.27l.71,3.72c.45.22,1.78-.88,1.95-.71l-.88,1.95c.64-.19,1.18.19,1.68.27.61.09,1.18-.09,1.97.24.16.07.59.12.25.37Z"/>
    </g>
  </g>
</svg>