<?xml version="1.0" encoding="UTF-8"?>
<svg id="Layer_1" xmlns="http://www.w3.org/2000/svg" version="1.1" viewBox="0 0 200 200">
  <!-- Generator: Adobe Illustrator 29.7.1, SVG Export Plug-In . SVG Version: 2.1.1 Build 8)  -->
  <defs>
    <style>
      .st0 {
        fill: #fcdee6;
      }

      .st1 {
        fill: #bf6dbc;
      }

      .st2 {
        fill: #ffe1e9;
      }
    </style>
  </defs>
  <rect class="st2" width="200" height="200"/>
  <g id="_x33_pBnTb">
    <g>
      <path class="st0" d="M148.01,156.11c-2.21.51-.58,4.02,1.25,2.05.91-.99.27-2.4-1.25-2.05ZM116.89,156.1c-1.17.35-1.22,2.69.3,2.64,1.97-.06,2-3.34-.3-2.64ZM91.99,166.08c-.57-.8-2,1.67-2.42,2.06-.89.84-3.9,2.72-5.06,2.06-.25-.14-.18-.4-.31-.59-.08-.12-.29-.13-.31-.16-.08-.15.06-2.1.16-2.26,1.77-.33,3.48-.77,4.78-2.11,3.24-3.33-.39-5.46-3.64-2.93-2.56,1.99-2.45,4.74-4.76,6.86-.61.56-2.2,2.01-2.3.37-.06-.98.57-3.12.81-4.19.11-.5-.19-.23.18-.79.57-.88,1.19-1.35,1.76-2.09,1.96-2.57,6.03-8.71,6.02-11.88-.01-2.52-2.37-2.4-3.84-.96-2.75,2.67-4.06,8.36-5.13,11.95-2.71-.68-5.25,1.13-6.5,3.42-1.1,2.01-1.17,2.95-3.14,4.55-.44.36-1.33,1.09-1.58.14-.16-.58.9-3.23,1.19-3.93.27-.64,1.64-2.97,1.64-3.37-.01-.69-.98-.75-1.48-.45-.47.28-2.62,4.64-3.27,5.54-.86,1.2-4.63,5.25-3.75,1.26.49-2.18,2.24-4.73,2.58-6.72.25-1.46-.74-1.38-1.6-.53-.8.79-2.59,5.65-2.9,6.93-.33,1.32-.59,2.95,1.23,3.17,2.03.25,3.51-1.5,4.72-2.85-.59,2.73,1.3,3.34,3.39,1.87.72-.51,1.07-1.37,1.8-1.87.09,1.63.24,2.91,2.22,2.67,1.82-.22,2.81-2.04,3.81-3.34.59-.77.24.11.23.39-.21,5.34,3.58,2.7,5.46.28.52,4.55,4.89,2.76,7.33.89.55-.43,3.17-2.73,2.69-3.4ZM86.71,162.59c1.26-1,2.67-.87,1.88.99-.57,1.33-2.6,2.48-4.02,2.5-.4-.41,1.63-3.08,2.14-3.49ZM79.9,161.3c.94-3.11,1.7-6.38,3.2-9.29.47-.92,1.45-2.42,2.53-2.48.98.49-.23,3.31-.56,4.1-1.22,2.96-3.26,6.1-5.34,8.52-.41-.83.11-.64.17-.84ZM72.68,170.19c-.98-.23.12-4.03.43-4.74.47-1.07,2.16-3.39,3.48-3.3.13,0,.94.33.97.38.7,1.11-3.64,7.95-4.89,7.66ZM114.14,147.36c-1.02-.07-.29.69-.14,1.37,1.31,6.03-4.97,17.39-9.57,21.2-1.27,1.05-3.09,2.16-2.64-.5.43-2.51,2.02-5.6,2.73-8.18.86-3.14,2.15-8.86-1.78-10.38-6.72-2.59-12.14,7.56-7.51,11.09.57.43.93.67,1.69.54.01-.96-1.18-1.2-1.69-1.97-1.77-2.71,1.13-8.41,4.37-9.03,5.39-1.04,3.72,5.44,3,8.54-.61,2.62-2.99,8.96-2.41,11.28.56,2.26,2.96,1.07,4.19.07,3.93-3.21,11.15-14.66,11.52-19.7.09-1.24-.06-4.22-1.74-4.33ZM57.49,158.33c1.06-3.37,2.2-6.45,3.67-9.66.18-.38,1.28-1.7.26-1.72-1.8-.03-5.34,3.23-6.54,4.56-2.44,2.74-4.36,5.97-6.11,9.18-1.19-.02-2.24-.58-3.48-.67-2.25-.15-6.23.79-7.76,2.57-1.02,1.19-1.7,4.51.36,4.92-1.23-5.51,6.18-7.7,10.2-5.81-2.42,4.54-7.07,12.55-13.31,10.81-.36-.1-.67-.23-.98-.45-.62-.42-.87-1.49-1.62-1.05-.09,1.92,1.53,2.98,3.31,3.12,5.29.43,9.49-4.88,12.08-8.86.56-.86,1.13-2.21,1.7-2.95.15-.19.21-.33.49-.33,1.09,0,2.82,1.14,4.06,1.04-.76,3.32-2.5,8-.75,11.21,1.07,1.97,2.6,1.59,4.51,1.12-.55-.59-1.37-.33-2.06-.89-1.24-1-1.11-3.81-.98-5.28.06-.7,1.15-5.57,1.45-5.81,1.33-.02,2.77.21,3.98-.39.16-.08.88-.55.84-.77-1.49.21-2.96.36-4.47.26l.91-3.98c.04-.14.26-.15.28-.2ZM54.15,162.32l-4.1-1.07c-.04-.19.02-.36.08-.54.35-1.1,2.77-4.95,3.53-6.13,1.51-2.34,3.44-4.21,5.69-5.85l-5.19,13.59ZM57.8,116.42c-1.14,1.15.06,2.91,1.78,2.4,2.11-.62.09-4.28-1.78-2.4ZM144.25,116.23c-1.41-1.19-3.57.74-2.22,2.22,1.44,1.57,3.72-.95,2.22-2.22ZM117.19,75.68c-10.23-12.63-30.27-8.88-35.85,6.24-6.01,16.27,5.25,34.82,23.47,31.88,16.99-2.74,22.61-25.49,12.38-38.12ZM86.96,90.06c0-.75.22-1.67.29-2.42.71-8.05,5.12-19.34,15.63-17.59,9.05,1.51,11.96,12.28,12.07,20.18-.56.28-.83-.11-1.32-.17-2.1-.26-4.33-.46-6.44-.54-6.61-.26-13.49,0-20.03.9-.19-.12-.21-.15-.21-.36ZM106.87,110.67c-2.67,1.66-6.76,1.78-9.78,1.14-.22-.05-2.54-1.58-2.85-1.82-5.53-4.22-6.69-11.61-7.17-18.14,9.2,1.36,18.66,1.08,27.9.18-.3,6.71-2,14.84-8.1,18.64ZM153.25,79.69c-.17-.18-.53.08-.69.29-.94,1.24-2.57,6.18-3.06,7.86-1.99,6.95-3.56,14.41-8.2,20.24-.17.21-.2.49-.57.41,2.43-5.26,4.37-10.88,4.83-16.72,1.08-13.95-6.93-31.22-19.26-38.33-.36-.21-2.23-1.35-2.38-.66-.06.29,2.73,2.57,3.16,3.01,13.5,13.86,15.28,36.52,3.35,51.97-9.34,12.09-23.39,15.25-28.83,31.45l-.58,2.01c-.38-1.86-1.12-3.61-1.92-5.32-6.62-14.2-20.83-17.89-28.92-30.29-10.32-15.82-7.97-36.42,4.92-49.96.64-.68,1.83-1.46,2.42-2.14.13-.14.45-.59.42-.74-.14-.15-.18-.27-.41-.25-1.11.1-5.33,3.43-6.32,4.33-6.99,6.42-12.08,14.6-13.97,24.04-1.99,9.97-.02,19.57,4.6,28.48l-1.15-1.26c-5.07-7.01-6.11-14.37-8.68-22.26-.25-.77-2.21-5.95-2.54-6.13-.1-.06-.45-.07-.51-.03-.24.15.48,4.76.53,5.46,1.04,12.76-.47,19.31,11.11,27.35,1.88,1.3,4.01,2.3,5.91,3.57,3.49,2.35,6.67,5.25,10.35,7.36-.22.17-.7.11-.98.09-2.76-.2-5.91-.84-8.22-.89-.06,0-.5-.28-1-.45-1.11-.37-4.18-2-4.92-2.06-.15-.01-.3,0-.45,0,2.43,3.72,7.38,6.77,11.63,7.96,6.82,1.9,13.35-.5,19.83,3.6,2.62,1.66,6.29,6.42,7.06,9.41.38,1.49.18,3.98.67,5.4.36,1.05,1.07.51,1.16-.16.67-5.29.92-7.88,4.73-11.99,7.58-8.17,15.78-3.43,24.78-6.88,2.98-1.14,7.5-4,9.38-6.59.25-.34.58-.6.1-.93-2.02.87-3.98,1.92-6.13,2.45-2.4.6-4.85.57-7.27.96-.48.08-1.52.96-1.71-.18,3.78-1.8,6.86-5.02,10.32-7.3,3.62-2.38,6.95-3.72,10.19-6.89,7.1-6.96,5.66-14.04,6.5-22.92.08-.85.93-6.12.71-6.35ZM63.01,112.78c-4.52-3.2-9.35-6.72-10.92-12.34-.75-2.69-1.19-6.75-1.35-9.56-.09-1.57.08-3.17,0-4.75l.81,2.14c1.87,8.15,4.98,17.98,11.17,23.89.19.18.52.24.54.26.1.11.04.48-.26.35ZM75.76,127.58c-3.55-.53-7.19-2.22-9.98-4.42,1.61.19,3.16.64,4.77.87,5.08.73,10.07.76,14.85,2.95.06.03.09.25.18.29.6.3,1.49.45,1.84,1.08-3.81-.76-7.83-.19-11.67-.76ZM88.51,127.35c-3.43-1.8-7.42-2.97-10.61-4.79-10.41-5.95-16.5-12.96-19.3-24.87-2.95-12.57.95-27.01,9.86-36.34.16-.16,1.07-1.18,1.26-.98l-2.84,5.12c-7.05,13.9-5.31,31.22,4.19,43.51,6.14,7.94,15.74,12.08,22.07,19.78.7.85,1.73,2.07,1.97,3.12-1.92-1.9-4.23-3.32-6.61-4.57ZM136.26,123.16c.1.46-.12.31-.34.46-2.33,1.64-5.49,3.1-8.28,3.71-4.29.93-8.7.41-13.02,1.02-.32-.31.99-.86,1.13-.93,1.46-.67,3.73-1.48,5.27-1.88,4.97-1.27,10.28-1.02,15.24-2.38ZM132.94,116.53c-5.85,5-10.26,6.54-17.02,9.63-3.61,1.65-5.55,3.21-8.64,5.5-.24.18-.38.33-.72.26,2.44-3.76,5.75-6.85,9.22-9.65,3.13-2.54,6.59-4.7,9.63-7.37,15.42-13.59,18.1-33.71,8.61-51.66-.54-1.01-1.32-2.02-1.8-3.03-.17-.36-.08-.77.17-.09,6.27,6.3,11,15.17,11.91,24.14,1.12,11.01-2.77,24.94-11.36,32.28ZM150.52,98.51c-.76,4.14-2.64,7.01-5.6,9.87-1.79,1.72-3.88,3.29-6.15,4.31,6.6-6.4,9.88-15.64,11.85-24.45l.84-2.29c-.29,4.18-.18,8.42-.94,12.56ZM119.44,54.65c-.06-.07-1.49-.29-1.83-.41-5.56-1.95-8.35-7.38-15.1-7.98-8.87-.78-10.66,5.22-17.5,7.85-.63.24-1.7.35-2.12.54-.18.08-.16.33-.11.44.11.26,4.5,1.58,5.31,2.02,1.51.84,3.12,2.56,4.65,3.58,6.22,4.13,12.11,3.39,18-.89,1-.72,2.04-1.94,3.04-2.51.91-.53,5.42-1.85,5.59-2.1.09-.12.14-.48.08-.54ZM115.46,55.24c-.8.63-2.09,1.11-2.98,1.66-3.07,1.93-5.69,4.42-9.45,5.04-6.1,1.01-9.02-2.35-13.65-5.22-.5-.31-2.97-1.46-3.03-1.63-.11-.34.17-.27.36-.35.89-.39,1.85-.5,2.81-.96,5.13-2.48,6.35-6.63,13.51-5.53,4.61.7,5.99,3.36,9.5,5.35.57.32,3.05,1.1,3.16,1.22.26.28-.11.31-.23.41ZM106.67,54.81c-.8-.33-1.37-.15-1.99-.25-.5-.08-1.04-.47-1.69-.27l.89-1.97c-.17-.17-1.51.94-1.97.72l-.72-3.76c-.27-.33-.31.05-.35.27-.1.58-.58,3.34-.9,3.58l-1.61-.63.72,1.79c-.61.17-3.47.25-3.76.54-.29.3.05.3.26.35,1.16.26,2.34.43,3.49.72l-1.07,2.14c.2.2,1.65-1.42,2.14-1.25.19.95.61,1.87.54,2.86,1.15.18.75-2.39,1.42-2.78.39-.23,1.26.83,1.44.64.18-.52-.85-1.36-.36-1.7.53-.36,3.59-.51,3.75-.63.34-.25-.09-.31-.25-.38ZM91.15,46.37c-1.7-2-3.24-4.3-5.07-6.21-.49-.51-1.16-1.41-1.88-1.43-.15.14,1.82,3.04,2.07,3.38.56.78,1.2,1.49,1.79,2.23.45.55,1.96,2.74,2.49,2.8.53.06.72-.29.59-.77ZM116.76,39.17c-1.69,1.76-4.23,4.79-5.51,6.83-.32.52-.69,1.15.22,1.13.66-.02,1.02-.9,1.43-1.36,1.85-2.06,3.24-4.43,4.85-6.68.04-1.04-.63-.3-.99.08ZM94.76,39.71c-.28-.83-2.4-6.66-2.71-6.86-.67-.43-.56.6-.47,1.1.24,1.4,1.66,5.07,2.2,6.56.16.43,1.21,3.28,1.36,3.38.16.1.48,0,.69.03.29-.28-.87-3.62-1.07-4.21ZM110.5,32.29c-.11-.11-.45.02-.62.18-.31.28-1.79,4.34-2.06,5.09-.55,1.52-1.57,4.08-1.75,5.6-.08.66.32,1.11.74.54.32-.44.63-1.45.84-2.02.9-2.4,1.99-5.47,2.63-7.93.07-.27.37-1.33.23-1.47ZM101.56,28.8l-.37-4.55c-.9.04-.4.93-.42,1.37-.07,1.64-.26,3.34-.3,4.97-.04,1.42-.24,11.32.19,11.72.43.41.85-.58.9-.98.44-3.89-.34-8.56,0-12.53Z"/>
      <path class="st1" d="M153.25,79.69c-.17-.18-.53.08-.69.29-.94,1.24-2.57,6.18-3.06,7.86-1.99,6.95-3.56,14.41-8.2,20.24-.17.21-.2.49-.57.41,2.43-5.26,4.37-10.88,4.83-16.72,1.08-13.95-6.93-31.22-19.26-38.33-.36-.21-2.23-1.35-2.38-.66-.06.29,2.73,2.57,3.16,3.01,13.5,13.86,15.28,36.52,3.35,51.97-9.34,12.09-23.39,15.25-28.83,31.45l-.58,2.01c-.38-1.86-1.12-3.61-1.92-5.32-6.62-14.2-20.83-17.89-28.92-30.29-10.32-15.82-7.97-36.42,4.92-49.96.64-.68,1.83-1.46,2.42-2.14.13-.14.45-.59.42-.74-.14-.15-.18-.27-.41-.25-1.11.1-5.33,3.43-6.32,4.33-6.99,6.42-12.08,14.6-13.97,24.04-1.99,9.97-.02,19.57,4.6,28.48l-1.15-1.26c-5.07-7.01-6.11-14.37-8.68-22.26-.25-.77-2.21-5.95-2.54-6.13-.1-.06-.45-.07-.51-.03-.24.15.48,4.76.53,5.46,1.04,12.76-.47,19.31,11.11,27.35,1.88,1.3,4.01,2.3,5.91,3.57,3.49,2.35,6.67,5.25,10.35,7.36-.22.17-.7.11-.98.09-2.76-.2-5.91-.84-8.22-.89-.06,0-.5-.28-1-.45-1.11-.37-4.18-2-4.92-2.06-.15-.01-.3,0-.45,0,2.43,3.72,7.38,6.77,11.63,7.96,6.82,1.9,13.35-.5,19.83,3.6,2.62,1.66,6.29,6.42,7.06,9.41.38,1.49.18,3.98.67,5.4.36,1.05,1.07.51,1.16-.16.67-5.29.92-7.88,4.73-11.99,7.58-8.17,15.78-3.43,24.78-6.88,2.98-1.14,7.5-4,9.38-6.59.25-.34.58-.6.1-.93-2.02.87-3.98,1.92-6.13,2.45-2.4.6-4.85.57-7.27.96-.48.08-1.52.96-1.71-.18,3.78-1.8,6.86-5.02,10.32-7.3,3.62-2.38,6.95-3.72,10.19-6.89,7.1-6.96,5.66-14.04,6.5-22.92.08-.85.93-6.12.71-6.35ZM69.81,60.02c.12.06.12.12,0,.18v-.18ZM63.01,112.78c-4.52-3.2-9.35-6.72-10.92-12.34-.75-2.69-1.19-6.75-1.35-9.56-.09-1.57.08-3.17,0-4.75l.81,2.14c1.87,8.15,4.98,17.98,11.17,23.89.19.18.52.24.54.26.1.11.04.48-.26.35ZM75.76,127.58c-3.55-.53-7.19-2.22-9.98-4.42,1.61.19,3.16.64,4.77.87,5.08.73,10.07.76,14.85,2.95.06.03.09.25.18.29.6.3,1.49.45,1.84,1.08-3.81-.76-7.83-.19-11.67-.76ZM88.51,127.35c-3.43-1.8-7.42-2.97-10.61-4.79-10.41-5.95-16.5-12.96-19.3-24.87-2.95-12.57.95-27.01,9.86-36.34.16-.16,1.07-1.18,1.26-.98l-2.84,5.12c-7.05,13.9-5.31,31.22,4.19,43.51,6.14,7.94,15.74,12.08,22.07,19.78.7.85,1.73,2.07,1.97,3.12-1.92-1.9-4.23-3.32-6.61-4.57ZM140.19,109.2s.26-.81.54-.53c.17.17-.31.71-.54.53ZM131.96,59.84c-.06.12-.3-.11-.18-.36.06-.12.3.11.18.36ZM136.7,122.8c.18.16-.27.45-.27.27l.27-.27ZM136.26,123.16c.1.46-.12.31-.34.46-2.33,1.64-5.49,3.1-8.28,3.71-4.29.93-8.7.41-13.02,1.02-.32-.31.99-.86,1.13-.93,1.46-.67,3.73-1.48,5.27-1.88,4.97-1.27,10.28-1.02,15.24-2.38ZM132.94,116.53c-5.85,5-10.26,6.54-17.02,9.63-3.61,1.65-5.55,3.21-8.64,5.5-.24.18-.38.33-.72.26,2.44-3.76,5.75-6.85,9.22-9.65,3.13-2.54,6.59-4.7,9.63-7.37,15.42-13.59,18.1-33.71,8.61-51.66-.54-1.01-1.32-2.02-1.8-3.03-.17-.36-.08-.77.17-.09,6.27,6.3,11,15.17,11.91,24.14,1.12,11.01-2.77,24.94-11.36,32.28ZM150.52,98.51c-.76,4.14-2.64,7.01-5.6,9.87-1.79,1.72-3.88,3.29-6.15,4.31,6.6-6.4,9.88-15.64,11.85-24.45l.84-2.29c-.29,4.18-.18,8.42-.94,12.56Z"/>
      <path class="st1" d="M117.19,75.68c-10.23-12.63-30.27-8.88-35.85,6.24-6.01,16.27,5.25,34.82,23.47,31.88,16.99-2.74,22.61-25.49,12.38-38.12ZM86.96,90.06c0-.75.22-1.67.29-2.42.71-8.05,5.12-19.34,15.63-17.59,9.05,1.51,11.96,12.28,12.07,20.18-.56.28-.83-.11-1.32-.17-2.1-.26-4.33-.46-6.44-.54-6.61-.26-13.49,0-20.03.9-.19-.12-.21-.15-.21-.36ZM106.87,110.67c-2.67,1.66-6.76,1.78-9.78,1.14-.22-.05-2.54-1.58-2.85-1.82-5.53-4.22-6.69-11.61-7.17-18.14,9.2,1.36,18.66,1.08,27.9.18-.3,6.71-2,14.84-8.1,18.64Z"/>
      <path class="st1" d="M167.33,165.94c-.66.12-.68.76-1.02,1.13-1.96,2.09-7.95,6.14-6.78.11,1.81-.29,3.76-.8,5.08-2.16,2.05-2.11,1.17-4.66-1.93-4.08-1.33.25-3.15,2.33-3.86,3.48-.47.76-.72,1.71-1.14,2.44-.4.69-3.31,4.57-3.87,2.68-.42-1.39,1.92-4.48,1.77-5.87-.1-.94-1.64-1.56-1.9-2.4-.35-1.12.55-2.46-.25-3.33-.47-.51-1.6.39-1.72.8-.31,1.09.2,2.08.1,2.95-.15,1.35-4.86,7.56-6.19,8.14-.81.35-1.32-.14-1.15-.94.03-.13.37-.1.38-.22.14-1.74,1.29-3.58,1.83-5.48.19-.66.78-2.36-.3-2.29-1.27.08-1.68,2.54-2.12,3.44-.6,1.23-1.74,1.81-3.08,1.93.07-1.82,1.32-3.96-.92-4.99-2.53-1.17-4.62.84-5.87,2.86-1.05,1.7-1.53,3.13-3.05,4.64-2.5,2.49-3,1.65-2.19-1.47.79-3.04,2.23-6.07,3.19-9.06.4-.35,4.09,1.11,5.88-.3.44-.35,1.17-1.5.18-1.26-.64.16-1.13.71-2.05.82-1.15.13-2.38-.07-3.49-.36l2.48-5.13c-.65-1.22-1.63.28-2.09.96-.35.52-1.63,3.26-1.82,3.37-.33.2-2.78.07-3.75.36-.52.16-2.16,1.11-2.42,1.51-.87,1.31,2.17-.31,2.51-.35.84-.12,1.9.09,2.77,0,.03.25-.06.45-.12.68-.75,2.58-2.48,7.03-4.26,8.98-1.93,2.11-7.13,5.35-6.51-.07.19-1.67,1.61-4.11,3.03-5.02.84-.54,2.18-.84,1.97.53-.14.96-.91.59-1.06.82-.66,1.04,1.49,1.69,2.1.23,1.4-3.33-2.6-3.57-4.8-1.94-2.22,1.65-2.35,3.85-3.77,5.7-.38.5-2.36,2.52-2.94,2.43-.75-1.33.29-2.99.71-4.3.13-.41.21-1.07.38-1.57.2-.6,1.54-2.91.75-3.41-1.21-.76-2.44,2.75-2.75,3.56-.47,1.24-1.96,5.34-1,6.35,1.59,1.66,4.24-1.18,5.37-2.24.19,2.78,3.06,3.16,5.31,2.36,1.67-.6,2.94-2.05,4.17-3.25-1.41,6.06,4.01,3.32,5.9.36-.09,5.33,4.34,3.3,6.62.62.28-.33.88-1.49,1.08-1.6.3-.18.99-.06,1.44-.17.51-.12,1.03-.45,1.42-.37-1.2,2.02-1.52,5.91,2.04,4.36,1.65-.72,4.01-3.95,5.09-5.47.7-.99,1.31-2.06,1.92-3.11.31-.05.77.28.88.55.92,2.22-2.98,5.52-1.52,7.6,1.56,2.21,4.46-.37,5.46-1.88.82,5.26,6.95,1.77,9.13-.53.3-.32,2.15-2.38.75-2.12ZM163.55,161.8c1.42-.12.72,1.6.16,2.32-.93,1.21-2.45,1.85-3.85,2.32.29-1.47,2.04-4.51,3.69-4.65ZM139.8,166.56c.16.79-3.13,4.21-4.21,3.7-1.18-.56-.35-3.72.06-4.69.6-1.43,2.5-4.46,4.35-3.58-.06,1-.81,1.4-.88,2.58-.08,1.33.59,1.5.69,1.99Z"/>
      <path class="st1" d="M91.99,166.08c-.57-.8-2,1.67-2.42,2.06-.89.84-3.9,2.72-5.06,2.06-.25-.14-.18-.4-.31-.59-.08-.12-.29-.13-.31-.16-.08-.15.06-2.1.16-2.26,1.77-.33,3.48-.77,4.78-2.11,3.24-3.33-.39-5.46-3.64-2.93-2.56,1.99-2.45,4.74-4.76,6.86-.61.56-2.2,2.01-2.3.37-.06-.98.57-3.12.81-4.19.11-.5-.19-.23.18-.79.57-.88,1.19-1.35,1.76-2.09,1.96-2.57,6.03-8.71,6.02-11.88-.01-2.52-2.37-2.4-3.84-.96-2.75,2.67-4.06,8.36-5.13,11.95-2.71-.68-5.25,1.13-6.5,3.42-1.1,2.01-1.17,2.95-3.14,4.55-.44.36-1.33,1.09-1.58.14-.16-.58.9-3.23,1.19-3.93.27-.64,1.64-2.97,1.64-3.37-.01-.69-.98-.75-1.48-.45-.47.28-2.62,4.64-3.27,5.54-.86,1.2-4.63,5.25-3.75,1.26.49-2.18,2.24-4.73,2.58-6.72.25-1.46-.74-1.38-1.6-.53-.8.79-2.59,5.65-2.9,6.93-.33,1.32-.59,2.95,1.23,3.17,2.03.25,3.51-1.5,4.72-2.85-.59,2.73,1.3,3.34,3.39,1.87.72-.51,1.07-1.37,1.8-1.87.09,1.63.24,2.91,2.22,2.67,1.82-.22,2.81-2.04,3.81-3.34.59-.77.24.11.23.39-.21,5.34,3.58,2.7,5.46.28.52,4.55,4.89,2.76,7.33.89.55-.43,3.17-2.73,2.69-3.4ZM86.71,162.59c1.26-1,2.67-.87,1.88.99-.57,1.33-2.6,2.48-4.02,2.5-.4-.41,1.63-3.08,2.14-3.49ZM79.9,161.3c.94-3.11,1.7-6.38,3.2-9.29.47-.92,1.45-2.42,2.53-2.48.98.49-.23,3.31-.56,4.1-1.22,2.96-3.26,6.1-5.34,8.52-.41-.83.11-.64.17-.84ZM72.68,170.19c-.98-.23.12-4.03.43-4.74.47-1.07,2.16-3.39,3.48-3.3.13,0,.94.33.97.38.7,1.11-3.64,7.95-4.89,7.66Z"/>
      <path class="st1" d="M57.49,158.33c1.06-3.37,2.2-6.45,3.67-9.66.18-.38,1.28-1.7.26-1.72-1.8-.03-5.34,3.23-6.54,4.56-2.44,2.74-4.36,5.97-6.11,9.18-1.19-.02-2.24-.58-3.48-.67-2.25-.15-6.23.79-7.76,2.57-1.02,1.19-1.7,4.51.36,4.92-1.23-5.51,6.18-7.7,10.2-5.81-2.42,4.54-7.07,12.55-13.31,10.81-.36-.1-.67-.23-.98-.45-.62-.42-.87-1.49-1.62-1.05-.09,1.92,1.53,2.98,3.31,3.12,5.29.43,9.49-4.88,12.08-8.86.56-.86,1.13-2.21,1.7-2.95.15-.19.21-.33.49-.33,1.09,0,2.82,1.14,4.06,1.04-.76,3.32-2.5,8-.75,11.21,1.07,1.97,2.6,1.59,4.51,1.12-.55-.59-1.37-.33-2.06-.89-1.24-1-1.11-3.81-.98-5.28.06-.7,1.15-5.57,1.45-5.81,1.33-.02,2.77.21,3.98-.39.16-.08.88-.55.84-.77-1.49.21-2.96.36-4.47.26l.91-3.98c.04-.14.26-.15.28-.2ZM54.15,162.32l-4.1-1.07c-.04-.19.02-.36.08-.54.35-1.1,2.77-4.95,3.53-6.13,1.51-2.34,3.44-4.21,5.69-5.85l-5.19,13.59Z"/>
      <path class="st1" d="M119.44,54.65c-.06-.07-1.49-.29-1.83-.41-5.56-1.95-8.35-7.38-15.1-7.98-8.87-.78-10.66,5.22-17.5,7.85-.63.24-1.7.35-2.12.54-.18.08-.16.33-.11.44.11.26,4.5,1.58,5.31,2.02,1.51.84,3.12,2.56,4.65,3.58,6.22,4.13,12.11,3.39,18-.89,1-.72,2.04-1.94,3.04-2.51.91-.53,5.42-1.85,5.59-2.1.09-.12.14-.48.08-.54ZM115.46,55.24c-.8.63-2.09,1.11-2.98,1.66-3.07,1.93-5.69,4.42-9.45,5.04-6.1,1.01-9.02-2.35-13.65-5.22-.5-.31-2.97-1.46-3.03-1.63-.11-.34.17-.27.36-.35.89-.39,1.85-.5,2.81-.96,5.13-2.48,6.35-6.63,13.51-5.53,4.61.7,5.99,3.36,9.5,5.35.57.32,3.05,1.1,3.16,1.22.26.28-.11.31-.23.41Z"/>
      <path class="st1" d="M104.36,171.39c-1.22,1-3.62,2.18-4.19-.07s1.8-8.66,2.41-11.28c.72-3.1,2.39-9.58-3-8.54-3.23.62-6.14,6.32-4.37,9.03.51.78,1.7,1.01,1.69,1.98-.77.13-1.13-.11-1.69-.54-4.63-3.53.79-13.68,7.51-11.09,3.93,1.52,2.64,7.24,1.78,10.38-.71,2.58-2.3,5.68-2.73,8.18-.45,2.65,1.37,1.55,2.64.5,4.6-3.81,10.89-15.17,9.57-21.2-.15-.68-.87-1.44.14-1.37,1.67.12,1.83,3.1,1.73,4.33-.37,5.03-7.59,16.48-11.52,19.7Z"/>
      <path class="st1" d="M101.2,24.24l.37,4.55c-.34,3.97.43,8.64,0,12.53-.04.4-.46,1.39-.9.98s-.22-10.3-.19-11.72c.04-1.63.23-3.33.3-4.97.02-.44-.48-1.33.42-1.37Z"/>
      <path class="st1" d="M110.5,32.29c.14.14-.16,1.2-.23,1.47-.63,2.45-1.73,5.53-2.63,7.93-.21.56-.52,1.57-.84,2.02-.42.57-.81.12-.74-.54.17-1.52,1.2-4.08,1.75-5.6.27-.75,1.76-4.81,2.06-5.09.17-.16.51-.29.62-.18Z"/>
      <path class="st1" d="M92.05,32.85c.31.2,2.43,6.03,2.71,6.86.2.59,1.36,3.93,1.07,4.21-.21-.03-.53.07-.69-.03s-1.2-2.95-1.36-3.38c-.54-1.49-1.96-5.17-2.2-6.56-.08-.5-.2-1.52.47-1.1Z"/>
      <path class="st1" d="M112.89,45.77c-.41.46-.77,1.34-1.43,1.36-.91.02-.55-.61-.22-1.13,1.28-2.04,3.82-5.07,5.51-6.83.36-.38,1.03-1.12.99-.08-1.62,2.25-3,4.62-4.85,6.69Z"/>
      <path class="st1" d="M88.07,44.34c-.6-.74-1.24-1.45-1.79-2.23-.25-.35-2.22-3.24-2.07-3.38.72.01,1.39.92,1.88,1.43,1.82,1.91,3.37,4.21,5.07,6.21.13.48-.06.83-.59.77s-2.04-2.25-2.49-2.8Z"/>
      <path class="st1" d="M144.25,116.23c1.51,1.27-.78,3.79-2.22,2.22-1.35-1.48.8-3.41,2.22-2.22Z"/>
      <path class="st1" d="M57.8,116.42c1.87-1.88,3.89,1.78,1.78,2.4-1.72.51-2.92-1.26-1.78-2.4Z"/>
      <path class="st1" d="M116.89,156.1c2.3-.7,2.27,2.57.3,2.64-1.52.05-1.47-2.29-.3-2.64Z"/>
      <path class="st1" d="M149.26,158.16c-1.82,1.97-3.46-1.55-1.25-2.05,1.52-.35,2.16,1.07,1.25,2.05Z"/>
      <path class="st0" d="M140.73,108.67c.17.17-.31.71-.54.53-.04-.03.26-.81.54-.53Z"/>
      <path class="st0" d="M131.96,59.84c-.06.12-.3-.1-.18-.36.06-.12.3.1.18.36Z"/>
      <path class="st0" d="M136.71,122.8c.18.16-.27.45-.27.27l.27-.27Z"/>
      <path class="st0" d="M69.81,60.02c.12.06.12.12,0,.18v-.18Z"/>
      <path class="st1" d="M106.92,55.19c-.17.12-3.22.27-3.75.63-.49.33.54,1.17.36,1.7-.18.19-1.05-.87-1.44-.64-.67.39-.28,2.96-1.42,2.78.07-.99-.35-1.91-.54-2.86-.5-.17-1.95,1.45-2.14,1.25l1.07-2.14c-1.15-.29-2.33-.46-3.49-.72-.21-.05-.56-.05-.26-.35.28-.29,3.14-.37,3.76-.54l-.72-1.79,1.61.63c.31-.24.79-3,.9-3.58.04-.22.08-.6.35-.27l.72,3.76c.46.22,1.79-.89,1.97-.72l-.89,1.97c.65-.19,1.19.2,1.69.27.62.09,1.19-.09,1.99.25.16.07.59.12.25.38Z"/>
    </g>
  </g>
</svg>